# xmcd
#
# Track frame offsets:
#	150
#	21169
#	45947
#	65982
#	79244
#	100833
#	130962
#	163479
#	193712
#
# Disc length: 2883 seconds
#
# Revision: 11
# Processed by: cddbd v1.5.2PL0 Copyright (c) Steve Scherf et al.
# Submitted via: Jack! The Knife 20 Magnifico
#
DISCID=7d0b4109
DTITLE=Revolution Renaissance - Age Of Aquarius
DYEAR=2009
DGENRE=Metal
TTITLE0=Age Of Aquarius
TTITLE1=Sins Of My Beloved
TTITLE2=Ixion's Wheel
TTITLE3=Behind The Mask
TTITLE4=Ghost Of Fallen Grace
TTITLE5=The Heart Of All
TTITLE6=So She Wears Black
TTITLE7=Kyrie Eleison
TTITLE8=Into The Future
EXTD=Timo Tolkki and Santtu Lehtiniemi
EXTT0=Tolkki, Agra, Monsanto
EXTT1=Tolkki, Agra, Monsanto
EXTT2=Tolkki, Agra, Monsanto
EXTT3=Tolkki, Agra, Monsanto
EXTT4=Tolkki, Agra, Monsanto
EXTT5=Tolkki, Agra, Monsanto
EXTT6=Tolkki, Agra, Monsanto
EXTT7=Tolkki, Agra, Monsanto
EXTT8=Tolkki, Agra, Monsanto
PLAYORDER=
